Coordinates
version=1
nRows=26
nColumns=22
inDegrees=yes

Units are S.I. units (second, meters, Newtons, ...)
If the header above contains a line with 'inDegrees', this indicates whether rotational values are in degrees (yes) or radians (no).

endheader
time	pelvis_tilt	pelvis_list	pelvis_rotation	pelvis_tx	pelvis_ty	pelvis_tz	hip_flexion_r	hip_adduction_r	hip_rotation_r	knee_angle_r	ankle_angle_r	subtalar_angle_r	hip_flexion_l	hip_adduction_l	hip_rotation_l	knee_angle_l	ankle_angle_l	subtalar_angle_l	lumbar_extension	lumbar_bending	lumbar_rotation
      6.20000000	      0.03522164	     -1.77270170	   -114.30152298	      0.73392135	      1.00879369	      0.43531217	     12.39406895	     -3.17439794	     -4.82234914	    -57.79159263	      4.25460139	     -2.85084543	      9.94097106	      2.31644428	      6.26324906	    -16.61132986	      8.10546639	      6.55350928	    -13.25621491	     -2.00587128	      0.47902264
      6.21000000	     -0.05157571	     -1.83869250	   -114.86759565	      0.73244573	      1.00950342	      0.44016491	     13.10290580	     -3.12380355	     -5.09102551	    -57.24396162	      5.11939722	     -2.53142276	      9.35214230	      2.24693107	      5.70760185	    -16.36262437	      8.30501952	      6.31572881	    -13.43662311	     -2.01473934	      0.29798101
      6.22000000	     -0.13014958	     -1.88779343	   -115.44079307	      0.73088932	      1.01014027	      0.44489581	     13.80350900	     -3.04621272	     -5.33651002	    -56.55376244	      5.97087823	     -2.04768089	      8.77845211	      2.17881749	      5.14113688	    -16.09751620	      8.49830778	      6.09453066	    -13.59379088	     -2.03390589	      0.13794291
      6.23000000	     -0.20160237	     -1.92308587	   -115.99937651	      0.72931548	      1.01071896	      0.44955671	     14.48351046	     -2.97086036	     -5.61335890	    -55.72954590	      6.81274267	     -1.44733639	      8.21243529	      2.12066227	      4.60320225	    -15.80859370	      8.65756336	      5.87305208	    -13.73139162	     -2.05110069	     -0.02309887
      6.24000000	     -0.23681716	     -1.96873605	   -116.58167433	      0.72769174	      1.01123628	      0.45415615	     15.14664965	     -2.94520085	     -5.89889421	    -54.80382213	      7.60242129	     -0.97563099	      7.64132599	      2.10615256	      4.02152460	    -15.49583816	      8.83836104	      5.69497509	    -13.85932979	     -2.11059283	     -0.16342983
      6.25000000	     -0.26515886	     -2.02114534	   -117.14798929	      0.72606970	      1.01172949	      0.45875120	     15.76358261	     -2.96825125	     -6.27065469	    -53.77098478	      8.34846893	     -0.54410117	      7.05548780	      2.11489225	      3.47898343	    -15.16098926	      8.98341863	      5.50444949	    -13.98296625	     -2.16912924	     -0.31564577
      6.26000000	     -0.27554205	     -2.07660599	   -117.70473974	      0.72446473	      1.01217614	      0.46333534	     16.35201499	     -3.05966993	     -6.74475873	    -52.65521533	      9.02609941	     -0.30412595	      6.47413425	      2.15593377	      2.95550968	    -14.82041042	      9.11793548	      5.33797212	    -14.09728556	     -2.23367902	     -0.46126099
      6.27000000	     -0.28266178	     -2.15156527	   -118.25760423	      0.72284493	      1.01262212	      0.46793079	     16.88137879	     -3.20627018	     -7.30314262	    -51.45720955	      9.61929327	     -0.20543154	      5.86303207	      2.22084321	      2.44537780	    -14.45680022	      9.23538006	      5.16465079	    -14.22374091	     -2.29645965	     -0.62198113
      6.28000000	     -0.29886480	     -2.24526922	   -118.80150925	      0.72120190	      1.01307660	      0.47250299	     17.34553680	     -3.39105133	     -7.95657986	    -50.18360817	     10.12931943	     -0.28806087	      5.22565953	      2.29670368	      1.95411563	    -14.08072436	      9.33535643	      4.98643136	    -14.37309983	     -2.34548238	     -0.81467292
      6.29000000	     -0.31049094	     -2.34171266	   -119.33517704	      0.71954951	      1.01348006	      0.47706594	     17.77468506	     -3.62319112	     -8.71909853	    -48.86089947	     10.58569650	     -0.52810828	      4.59220969	      2.38996145	      1.48458803	    -13.70896289	      9.45540753	      4.84031606	    -14.51971553	     -2.38866688	     -0.98578541
      6.30000000	     -0.33762359	     -2.44116897	   -119.85415177	      0.71785951	      1.01386891	      0.48161061	     18.14952962	     -3.86083581	     -9.56531906	    -47.47815768	     10.96198759	     -0.90068612	      3.95555845	      2.47664541	      1.01061856	    -13.34540745	      9.55698733	      4.70621006	    -14.67632193	     -2.40760967	     -1.17537916
      6.31000000	     -0.35840974	     -2.53498800	   -120.37088468	      0.71609850	      1.01418892	      0.48611857	     18.50452915	     -4.10010876	    -10.45055593	    -46.06278144	     11.28813326	     -1.31593283	      3.32585282	      2.57203860	      0.55332981	    -12.97587882	      9.69599948	      4.60520267	    -14.82098663	     -2.42923872	     -1.34550621
      6.32000000	     -0.38283162	     -2.61650705	   -120.88278129	      0.71424201	      1.01444465	      0.49056043	     18.84232553	     -4.30905248	    -11.35403198	    -44.61693903	     11.53904348	     -1.74304387	      2.71669807	      2.65819382	      0.08340970	    -12.62129117	      9.83904081	      4.52887352	    -14.95711256	     -2.44596071	     -1.49437338
      6.33000000	     -0.40225898	     -2.68224264	   -121.39628470	      0.71228634	      1.01461386	      0.49493102	     19.17881257	     -4.47344585	    -12.21925350	    -43.15239959	     11.72474623	     -2.12372956	      2.13132417	      2.74159613	     -0.39319055	    -12.27502989	     10.01147597	      4.47863525	    -15.07470681	     -2.46293641	     -1.62265204
      6.34000000	     -0.41071676	     -2.72340843	   -121.91184286	      0.71020399	      1.01467245	      0.49919219	     19.53269850	     -4.57924018	    -13.01436665	    -41.67966479	     11.83247207	     -2.40969322	      1.58511410	      2.81911507	     -0.88060254	    -11.94349386	     10.20848099	      4.44473239	    -15.16636265	     -2.49027770	     -1.71929209
      6.35000000	     -0.37943803	     -2.71090858	   -122.42168825	      0.70802290	      1.01454025	      0.50332522	     19.95600917	     -4.63287229	    -13.71256735	    -40.21467974	     11.88595903	     -2.51070103	      1.14323829	      2.89772372	     -1.39291208	    -11.66401014	     10.42284030	      4.41218740	    -15.18573727	     -2.53479132	     -1.79343119
      6.36000000	     -0.37483837	     -2.72007745	   -122.95391862	      0.70565954	      1.01440957	      0.50734012	     20.32338757	     -4.58988486	    -14.25470071	    -38.71887112	     11.77911139	     -2.60005466	      0.63634898	      2.96339351	     -1.87846011	    -11.32897389	     10.66516179	      4.37514512	    -15.24574149	     -2.58275636	     -1.84538339
      6.37000000	     -0.32498510	     -2.67418952	   -123.46467721	      0.70324615	      1.01408209	      0.51125242	     20.76151490	     -4.51532122	    -14.72227727	    -37.23760607	     11.59381678	     -2.54024366	      0.23818070	      3.03596448	     -2.35738798	    -11.04386366	     10.88907848	      4.33371183	    -15.22769645	     -2.64513873	     -1.85366235
      6.38000000	     -0.27849053	     -2.62397803	   -123.98044750	      0.70071223	      1.01368898	      0.51504963	     21.17984214	     -4.36650397	    -15.03551195	    -35.73821060	     11.31130531	     -2.39327588	     -0.15503661	      3.09886697	     -2.83786591	    -10.75961593	     11.13443851	      4.28325735	    -15.21098465	     -2.70816446	     -1.86553048
      6.39000000	     -0.25839077	     -2.58874709	   -124.49808575	      0.69807488	      1.01327873	      0.51875230	     21.53905212	     -4.15016949	    -15.22380732	    -34.22163288	     10.99827048	     -2.09709745	     -0.56480846	      3.14240464	     -3.36279863	    -10.49507479	     11.39957868	      4.21341346	    -15.23304455	     -2.76051993	     -1.86496340
      6.40000000	     -0.22476094	     -2.51449460	   -124.98688538	      0.69543424	      1.01277206	      0.52243259	     21.91531481	     -3.90715513	    -15.36870589	    -32.71040923	     10.56269957	     -1.75833786	     -0.92525633	      3.17856513	     -3.83626286	    -10.23740360	     11.64571719	      4.14335416	    -15.20692049	     -2.78864829	     -1.85939780
      6.41000000	     -0.19896392	     -2.42868086	   -125.45376554	      0.69277282	      1.01223130	      0.52608701	     22.26685663	     -3.63701454	    -15.47031846	    -31.20503462	     10.06096703	     -1.39444896	     -1.27300920	      3.20142139	     -4.28780621	     -9.99046998	     11.89229222	      4.06570529	    -15.17876403	     -2.78952386	     -1.85670311
      6.42000000	     -0.18967134	     -2.34591007	   -125.89874892	      0.69010456	      1.01169557	      0.52973493	     22.57411981	     -3.35155657	    -15.54749692	    -29.71201151	      9.51663370	     -0.99855626	     -1.63150174	      3.21464511	     -4.70763391	     -9.74652420	     12.14083000	      3.97485376	    -15.17095039	     -2.76314034	     -1.86026419
      6.43000000	     -0.18334779	     -2.24664214	   -126.31834046	      0.68743057	      1.01111999	      0.53342356	     22.86938135	     -3.06944087	    -15.66675851	    -28.25569706	      8.93889924	     -0.68231632	     -1.96590576	      3.21753740	     -5.12189323	     -9.52652492	     12.38540185	      3.88085787	    -15.14587127	     -2.70456037	     -1.87351967
      6.44000000	     -0.19163662	     -2.17965415	   -126.71997489	      0.68472461	      1.01057283	      0.53715398	     23.10213784	     -2.80774228	    -15.80926012	    -26.83947479	      8.36313673	     -0.35754284	     -2.34268560	      3.23340898	     -5.49475255	     -9.30256460	     12.62258110	      3.76144990	    -15.16213197	     -2.64105045	     -1.89190884
      6.45000000	     -0.18920906	     -2.09983171	   -127.09558784	      0.68196200	      1.00993478	      0.54097626	     23.33517086	     -2.57285722	    -16.03624032	    -25.48996026	      7.81553043	     -0.15881224	     -2.68103475	      3.24961763	     -5.88524568	     -9.12704480	     12.87417937	      3.64474990	    -15.14660298	     -2.56027955	     -1.92000559
